<?xml version="1.0" encoding="UTF-8" standalone="no"?>
<!-- Created with Inkscape (http://www.inkscape.org/) -->

<svg
   width="10.416667in"
   height="10.416667in"
   viewBox="0 0 264.58334 264.58334"
   version="1.1"
   id="svg297"
   xml:space="preserve"
   xmlns="http://www.w3.org/2000/svg"
   xmlns:svg="http://www.w3.org/2000/svg"
   xmlns:rdf="http://www.w3.org/1999/02/22-rdf-syntax-ns#"
   xmlns:cc="http://creativecommons.org/ns#"
   xmlns:dc="http://purl.org/dc/elements/1.1/"><title
     id="title215">Data for Animals Logo - Color</title><defs
     id="defs294"><filter
       style="color-interpolation-filters:sRGB"
       id="filter215-77"
       x="0"
       y="0"
       width="1"
       height="1"><feColorMatrix
         type="hueRotate"
         values="335"
         result="color1"
         id="feColorMatrix214-2" /><feColorMatrix
         type="saturate"
         values="1"
         result="color2"
         id="feColorMatrix215-4" /></filter></defs><g
     id="layer1"
     transform="translate(-1093.1636,92.397908)"><g
       id="g5-1-4-6"
       style="fill:#00009b;fill-opacity:1;filter:url(#filter215-77)"
       transform="matrix(5.2951524,0,0,5.2718218,411.87679,-205.31848)"><g
         id="g2-1-9-5"
         transform="translate(-4.0177611e-5,-0.12819719)"
         style="fill:#3636dd;fill-opacity:1"><path
           style="fill:#3636dd;fill-opacity:1;fill-rule:evenodd;stroke:none;stroke-width:0;stroke-linecap:square;stroke-linejoin:bevel;stroke-dasharray:none;paint-order:stroke fill markers"
           d="m 135.22778,43.615296 1.32724,-0.232562 c 0,0 -1.13481,-1.384581 -1.39409,-3.730465 -0.2592,-2.345883 0.067,3.963039 0.067,3.963039 z"
           id="path2830-8-6-2-9" /><path
           style="fill:#3636dd;fill-opacity:1;fill-rule:evenodd;stroke:none;stroke-width:0;stroke-linecap:square;stroke-linejoin:bevel;stroke-dasharray:none;paint-order:stroke fill markers"
           d="m 135.72171,43.771336 -1.18044,0.01069 c 0,0 0.34714,-0.921607 -0.4226,-2.301768 -0.76938,-1.380141 1.60273,2.291125 1.60273,2.291125 z"
           id="path2830-9-7-4-2-7" /><path
           style="fill:#3636dd;fill-opacity:1;fill-rule:evenodd;stroke:none;stroke-width:0;stroke-linecap:square;stroke-linejoin:bevel;stroke-dasharray:none;paint-order:stroke fill markers"
           d="m 135.78251,43.508958 0.95651,-0.04971 c 0,0 -0.52331,-1.203643 -0.26548,-3.075894 0.25805,-1.872225 -0.69103,3.125619 -0.69103,3.125619 z"
           id="path2830-9-2-4-4-0-4" /></g><g
         id="g3-1-2-76"
         style="fill:#3636dd;fill-opacity:1"
         transform="translate(-4.0177611e-5,-1.4524937e-5)"><path
           style="fill:#3636dd;fill-opacity:1;fill-rule:evenodd;stroke:none;stroke-width:0;stroke-linecap:round;stroke-linejoin:round;stroke-miterlimit:0;stroke-dasharray:none;stroke-opacity:1;paint-order:stroke fill markers"
           d="m 141.32989,40.867448 c -0.0589,-0.07516 0.0134,-0.193916 0.34535,-0.570973 0.68388,-0.775372 1.31922,-1.73112 1.61491,-2.429307 0.39786,-0.939332 0.64818,-1.772152 0.70596,-2.348282 0.0288,-0.277789 0.0804,-0.591437 0.11696,-0.697002 0.0736,-0.212764 0.0331,-0.915089 -0.054,-0.91742 -0.03,-8.06e-4 -0.24871,0.125648 -0.48583,0.281011 -0.54607,0.35777 -0.81471,0.48605 -1.2806,0.611472 l -0.37258,0.100314 -0.0608,0.700744 c -0.0949,1.096179 -0.35336,1.690913 -1.29387,2.978968 -0.68012,0.931424 -0.76033,1.016376 -1.08979,1.154458 -0.16536,0.06924 -0.31567,0.202897 -0.41437,0.368058 -0.21834,0.364872 -0.44047,0.452083 -1.10724,0.434235 -0.96429,-0.02581 -1.01661,-0.145733 -0.89866,-2.058817 0.0925,-1.499607 0.0399,-2.129164 -0.20784,-2.517112 -0.20004,-0.312376 -0.1995,-0.647848 1.7e-4,-1.080612 0.12287,-0.264093 0.14922,-0.434331 0.14868,-0.959962 7.9e-4,-0.351379 0.008,-0.717807 0.0161,-0.814263 0.0188,-0.22333 0.33171,-0.521511 0.53871,-0.51597 0.13956,0.0037 0.15973,-0.02732 0.16591,-0.252611 0.0113,-0.413978 0.2151,-0.876204 0.44411,-1.007345 0.11098,-0.06348 0.26,-0.09843 0.33118,-0.07776 0.15487,0.04501 0.36161,0.335783 0.4178,0.58793 0.0242,0.100101 0.0833,0.18308 0.13525,0.184451 1.02192,-1.566986 1.90611,-3.389146 2.7683,-4.605979 1.03451,-1.661569 1.94066,-2.973478 3.4345,-3.83687 1.11235,-0.534134 2.0371,-0.673453 3.17406,-1.027749 3.34182,-0.90638 4.50474,-0.783764 7.02062,-0.745462 1.17854,0.119221 1.87462,0.180123 3.63128,0.171733 1.41619,-0.05522 2.37491,-0.108599 3.61062,-0.32024 1.85247,-0.317243 2.28899,-0.316801 2.87743,0.0029 1.05653,0.574011 1.43337,1.520069 1.31646,3.305191 -0.0486,0.73578 -0.13848,1.25225 -0.47957,2.744572 -0.3215,1.405897 -0.44478,2.095139 -0.52456,2.930575 -0.10321,1.079934 -0.10276,1.1002 0.0538,1.783668 0.0871,0.380233 0.21322,0.783591 0.28116,0.896381 0.27224,0.453921 0.28287,0.501967 0.18473,0.832588 -0.0508,0.171625 -0.23958,0.656407 -0.41962,1.07728 -0.3892,0.910273 -0.82933,2.435758 -0.90515,3.137288 -0.0538,0.498283 -0.0565,0.503491 -0.27683,0.562007 -0.1374,0.03644 -0.23555,0.111177 -0.25543,0.194911 -0.23152,0.945177 -0.29532,1.029031 -0.89051,1.16769 -0.25489,0.05948 -0.35139,0.05733 -0.45279,-0.0097 -0.071,-0.04695 -0.22182,-0.08782 -0.33576,-0.09088 -0.25435,-0.007 -0.46407,-0.119383 -0.46066,-0.24718 0.001,-0.05251 0.22317,-0.491949 0.49288,-0.976439 0.75896,-1.363497 0.94627,-2.150921 0.84911,-3.569865 -0.0486,-0.709322 -0.19197,-1.30817 -0.31361,-1.311428 -0.0304,-8.18e-4 -0.12692,0.09495 -0.21403,0.212845 -0.0871,0.117876 -0.4494,0.509186 -0.805,0.86957 -0.53372,0.540966 -0.70661,0.770905 -0.99111,1.318544 -0.22264,0.428505 -0.5185,0.861032 -0.83591,1.221826 -0.45385,0.515859 -0.51333,0.619547 -0.77919,1.357847 -0.15837,0.439636 -0.29986,0.919829 -0.31442,1.067092 -0.0315,0.314115 -0.15327,0.364453 -0.47216,0.194615 -0.25571,-0.136053 -0.25517,-0.136053 -0.25839,-0.01371 -0.006,0.179746 -0.30155,0.284 -0.89924,0.315954 -0.64943,0.03474 -0.9233,-0.06517 -0.91612,-0.334122 0.002,-0.08228 0.33098,-0.459982 0.83171,-0.95544 1.20182,-1.189273 2.00104,-2.387805 2.45576,-3.682775 0.12691,-0.361973 0.0995,-0.436756 0.0908,-0.619669 -0.16967,-0.798258 -0.2506,-0.767865 -0.70532,-1.448733 l -0.18849,-0.230726 -0.90704,0.05114 c -0.91145,0.05138 -1.44775,0.0056 -3.36924,-0.286818 -0.85915,-0.13081 -3.08613,-0.283681 -3.30608,-0.226908 -0.21349,0.05518 -0.58597,0.404905 -1.24025,1.165184 -0.64376,0.748051 -1.0164,1.872431 -1.27638,3.851153 -0.0804,0.613518 -0.0895,0.957051 -0.0417,1.618135 0.0333,0.46159 0.0414,0.868259 0.0161,0.903727 -0.0831,0.12675 -0.36597,0.05783 -0.47285,-0.115161 -0.12611,-0.204483 -0.19601,-0.217846 -0.24549,-0.04705 -0.0683,0.235565 -0.35635,0.351541 -0.72288,0.291102 -0.18229,-0.0302 -0.38374,-0.0951 -0.44766,-0.144522 -0.10806,-0.08357 -0.0957,-0.119598 0.17639,-0.510899 0.82938,-1.192801 0.97705,-1.92308 0.85457,-4.225326 -0.0457,-0.860681 -0.0675,-0.990776 -0.15971,-0.9569 -0.27022,0.09892 -0.73522,0.204375 -1.35125,0.266971 -0.27657,0.01398 -0.26243,0.02608 -0.96815,0.991894 -1.20792,1.653422 -1.70669,2.697498 -2.05034,4.292098 -0.046,0.213758 -0.11244,0.317062 -0.25436,0.396712 -0.18041,0.101068 -0.19763,0.100483 -0.27482,-0.0097 -0.0774,-0.110513 -0.10457,-0.109725 -0.44986,0.01317 -0.83798,0.298135 -1.46357,0.372004 -1.60674,0.189748 z"
           id="path30366-1-0-2-9" /><path
           style="fill:#3636dd;fill-opacity:1;fill-rule:evenodd;stroke:#000000;stroke-width:0;stroke-linecap:square;stroke-linejoin:bevel;paint-order:stroke fill markers"
           d="m 166.48906,23.713281 c 0,0 0.52917,1.521354 0.59532,4.001823 0.0661,2.480469 0.13229,2.811198 0.33072,4.134114 0.19844,1.322917 0,1.785938 0,1.785938 0,0 -0.22799,0.344823 -0.11106,0.625456 0.11693,0.280633 0.44434,0.456028 0.58465,0.736661 0.14032,0.280633 0.22217,-0.666501 0.22217,-0.666501 0,0 0.1637,-0.456031 0.0351,-0.736664 -0.12862,-0.280633 -0.25725,-0.444336 -0.31571,-0.783434 -0.0585,-0.339097 -0.20015,-1.953643 -0.21669,-2.780466 -0.0165,-0.826823 -0.0165,-2.232422 -0.0165,-2.926953 0,-0.694531 0.14882,-3.588411 -0.4961,-4.101041 -0.64492,-0.512631 -0.81028,-0.115756 -0.81028,-0.115756 z"
           id="path2670-0-8-1" /></g><g
         id="g4-8-1-6"
         style="fill:#00009b;fill-opacity:1"><path
           id="use20712-1-9-1-4-6-8-8"
           style="fill:#c7c7ff;fill-opacity:1;fill-rule:evenodd;stroke-width:0.427138"
           d="m 163.31707,18.816832 -2e-5,6.656048 c 0,2.323275 1.87034,4.193611 4.19362,4.193611 l 20.67782,-1e-6 c 2.32328,0 4.19366,-1.87038 4.19366,-4.193656 V 5.1668599 c 0,-2.3232757 -1.87034,-4.19361194 -4.19361,-4.19361194 l -6.65275,1.812e-5 c 0.0338,6.08303932 -0.009,13.75112692 -0.14876,14.34881292 -0.27786,1.189215 -0.98883,2.179254 -2.01991,2.812612 -0.55785,0.342698 -1.14037,0.548321 -1.78592,0.630391 -0.44188,0.05624 -8.2194,0.06917 -14.26413,0.05175 z"
           transform="matrix(0.9453398,0.32608689,-0.9453398,0.32608689,0,0)" /><path
           style="fill:#8080ff;fill-opacity:1;fill-rule:evenodd;stroke-width:0.422242"
           d="m 150.40206,5.5847525 -1e-4,7.2083705 c 0,2.009567 1.61772,3.627283 3.62729,3.627283 l 21.47739,1.24e-4 c 2.00957,0 3.62736,-1.617793 3.62736,-3.62736 l -6e-5,-21.1098122 c 0,-2.0095668 -1.61772,-3.6272828 -3.62728,-3.6272828 l -7.20222,-4.3e-5 c 0.0302,6.0353649 -0.0132,13.4459811 -0.15043,14.0330947 -0.27786,1.1892167 -0.98883,2.1792558 -2.01991,2.8126122 -0.55786,0.3426976 -1.14032,0.5482664 -1.78587,0.6303368 -0.43399,0.055229 -7.94349,0.068584 -13.94617,0.052677 z"
           transform="matrix(0.94534022,0.32608569,-0.94534022,0.32608569,0,0)"
           id="use20714-9-9-5-3-7-2-5" /><rect
           style="fill:#3636dd;fill-opacity:1;fill-rule:evenodd;stroke-width:0.427138"
           id="use20716-2-2-4-8-8-6-1"
           width="29.065145"
           height="28.693281"
           x="137.15326"
           y="-25.190685"
           ry="4.1936426"
           transform="matrix(0.9453398,0.32608689,-0.9453398,0.32608689,0,0)" /></g></g></g><metadata
     id="metadata215"><rdf:RDF><cc:Work
         rdf:about=""><dc:title>Data for Animals Logo - Color</dc:title></cc:Work></rdf:RDF></metadata></svg>
